<?xml version="1.0" encoding="UTF-8"?>
<svg width="12px" height="12px" viewBox="0 0 12 12" version="1.1" xmlns="http://www.w3.org/2000/svg" xmlns:xlink="http://www.w3.org/1999/xlink">
    <!-- Generator: Sketch 52 (66869) - http://www.bohemiancoding.com/sketch -->
    <title>合并形状</title>
    <desc>Created with Sketch.</desc>
    <g id="Page-1" stroke="none" stroke-width="1" fill="none" fill-rule="evenodd">
        <g id="添加上级机构" transform="translate(-1084.000000, -311.000000)" fill="#000000" fill-rule="nonzero">
            <g id="分组-2-copy" transform="translate(1081.000000, 304.000000)">
                <path d="M7.4246212,11.9246212 L6.4246212,11.9246212 L6.4246212,9.9246212 C6.4246212,8.26776695 7.76776695,6.9246212 9.4246212,6.9246212 C11.0814755,6.9246212 12.4246212,8.26776695 12.4246212,9.9246212 L12.4246212,11.9246212 L11.4246212,11.9246212 L11.4246212,9.9246212 C11.4246212,8.8200517 10.5291907,7.9246212 9.4246212,7.9246212 C8.3200517,7.9246212 7.4246212,8.8200517 7.4246212,9.9246212 L7.4246212,11.9246212 Z M7.4246212,14.9246212 L7.4246212,16.9246212 C7.4246212,18.0291907 8.3200517,18.9246212 9.4246212,18.9246212 C10.5291907,18.9246212 11.4246212,18.0291907 11.4246212,16.9246212 L11.4246212,14.9246212 L12.4246212,14.9246212 L12.4246212,16.9246212 C12.4246212,18.5814755 11.0814755,19.9246212 9.4246212,19.9246212 C7.76776695,19.9246212 6.4246212,18.5814755 6.4246212,16.9246212 L6.4246212,14.9246212 L7.4246212,14.9246212 Z M9.9246212,11.9246212 L9.9246212,14.9246212 C9.9246212,15.2007636 9.70076358,15.4246212 9.4246212,15.4246212 C9.14847883,15.4246212 8.9246212,15.2007636 8.9246212,14.9246212 L8.9246212,11.9246212 C8.9246212,11.6484788 9.14847883,11.4246212 9.4246212,11.4246212 C9.70076358,11.4246212 9.9246212,11.6484788 9.9246212,11.9246212 Z" id="合并形状" transform="translate(9.424621, 13.424621) rotate(-45.000000) translate(-9.424621, -13.424621) "></path>
            </g>
        </g>
    </g>
</svg>