<?xml version="1.0" encoding="UTF-8"?>
<svg width="14px" height="14px" viewBox="0 0 14 14" version="1.1" xmlns="http://www.w3.org/2000/svg" xmlns:xlink="http://www.w3.org/1999/xlink">
    <!-- Generator: Sketch 52 (66869) - http://www.bohemiancoding.com/sketch -->
    <title>合并形状</title>
    <desc>Created with Sketch.</desc>
    <g id="管理员" stroke="none" stroke-width="1" fill="none" fill-rule="evenodd">
        <g id="管理员_医院医生管理_筛选一级子机构显示" transform="translate(-846.000000, -141.000000)" fill="#007ADA">
            <path d="M856,150 L859,150 C859.552285,150 860,150.447715 860,151 L860,154 C860,154.552285 859.552285,155 859,155 L856,155 C855.447715,155 855,154.552285 855,154 L855,151 C855,150.447715 855.447715,150 856,150 Z M857,152 L857,153 L858,153 L858,152 L857,152 Z M849.5,144 L850.5,144 C850.776142,144 851,144.223858 851,144.5 L851,145.5 C851,145.776142 850.776142,146 850.5,146 L849.5,146 C849.223858,146 849,145.776142 849,145.5 L849,144.5 C849,144.223858 849.223858,144 849.5,144 Z M855.5,141 L856.5,141 C856.776142,141 857,141.223858 857,141.5 L857,142.5 C857,142.776142 856.776142,143 856.5,143 L855.5,143 C855.223858,143 855,142.776142 855,142.5 L855,141.5 C855,141.223858 855.223858,141 855.5,141 Z M855.5,144 L856.5,144 C856.776142,144 857,144.223858 857,144.5 L857,148.5 C857,148.776142 856.776142,149 856.5,149 L855.5,149 C855.223858,149 855,148.776142 855,148.5 L855,144.5 C855,144.223858 855.223858,144 855.5,144 Z M851,150.5 L851,151.5 C851,151.776142 850.776142,152 850.5,152 L846.5,152 C846.223858,152 846,151.776142 846,151.5 L846,150.5 C846,150.223858 846.223858,150 846.5,150 L850.5,150 C850.776142,150 851,150.223858 851,150.5 Z M854,153.5 L854,154.5 C854,154.776142 853.776142,155 853.5,155 L849.5,155 C849.223858,155 849,154.776142 849,154.5 L849,153.5 C849,153.223858 849.223858,153 849.5,153 L853.5,153 C853.776142,153 854,153.223858 854,153.5 Z M858.5,141 L859.5,141 C859.776142,141 860,141.223858 860,141.5 L860,145.5 C860,145.776142 859.776142,146 859.5,146 L858.5,146 C858.223858,146 858,145.776142 858,145.5 L858,141.5 C858,141.223858 858.223858,141 858.5,141 Z M858.5,147 L859.5,147 C859.776142,147 860,147.223858 860,147.5 L860,148.5 C860,148.776142 859.776142,149 859.5,149 L858.5,149 C858.223858,149 858,148.776142 858,148.5 L858,147.5 C858,147.223858 858.223858,147 858.5,147 Z M852.5,150 L853.5,150 C853.776142,150 854,150.223858 854,150.5 L854,151.5 C854,151.776142 853.776142,152 853.5,152 L852.5,152 C852.223858,152 852,151.776142 852,151.5 L852,150.5 C852,150.223858 852.223858,150 852.5,150 Z M846.5,153 L847.5,153 C847.776142,153 848,153.223858 848,153.5 L848,154.5 C848,154.776142 847.776142,155 847.5,155 L846.5,155 C846.223858,155 846,154.776142 846,154.5 L846,153.5 C846,153.223858 846.223858,153 846.5,153 Z M847,141 L853,141 C853.552285,141 854,141.447715 854,142 L854,148 C854,148.552285 853.552285,149 853,149 L847,149 C846.447715,149 846,148.552285 846,148 L846,142 C846,141.447715 846.447715,141 847,141 Z M848,143 L848,147 L852,147 L852,143 L848,143 Z" id="合并形状"></path>
        </g>
    </g>
</svg>