<?xml version="1.0" encoding="UTF-8"?>
<svg width="17px" height="17px" viewBox="0 0 17 17" version="1.1" xmlns="http://www.w3.org/2000/svg" xmlns:xlink="http://www.w3.org/1999/xlink">
    <!-- Generator: Sketch 52 (66869) - http://www.bohemiancoding.com/sketch -->
    <title>合并形状</title>
    <desc>Created with Sketch.</desc>
    <g id="管理员" stroke="none" stroke-width="1" fill="none" fill-rule="evenodd">
        <g id="医生_患者详情_会诊" transform="translate(-1663.000000, -449.000000)" fill="#007ADA" fill-rule="nonzero">
            <path d="M1671.5,465 C1675.64214,465 1679,461.642136 1679,457.5 C1679,453.357864 1675.64214,450 1671.5,450 C1667.35786,450 1664,453.357864 1664,457.5 C1664,461.642136 1667.35786,465 1671.5,465 Z M1671.5,466 C1666.80558,466 1663,462.19442 1663,457.5 C1663,452.80558 1666.80558,449 1671.5,449 C1676.19442,449 1680,452.80558 1680,457.5 C1680,462.19442 1676.19442,466 1671.5,466 Z M1672,457 L1674.5,457 C1674.77614,457 1675,457.223858 1675,457.5 C1675,457.776142 1674.77614,458 1674.5,458 L1672,458 L1672,460.5 C1672,460.776142 1671.77614,461 1671.5,461 C1671.22386,461 1671,460.776142 1671,460.5 L1671,458 L1668.5,458 C1668.22386,458 1668,457.776142 1668,457.5 C1668,457.223858 1668.22386,457 1668.5,457 L1671,457 L1671,454.5 C1671,454.223858 1671.22386,454 1671.5,454 C1671.77614,454 1672,454.223858 1672,454.5 L1672,457 Z" id="合并形状"></path>
        </g>
    </g>
</svg>