<?xml version="1.0" encoding="UTF-8"?>
<svg width="17px" height="17px" viewBox="0 0 17 17" version="1.1" xmlns="http://www.w3.org/2000/svg" xmlns:xlink="http://www.w3.org/1999/xlink">
    <!-- Generator: Sketch 52 (66869) - http://www.bohemiancoding.com/sketch -->
    <title>合并形状</title>
    <desc>Created with Sketch.</desc>
    <g id="管理员" stroke="none" stroke-width="1" fill="none" fill-rule="evenodd">
        <g id="医生_患者详情_会诊" transform="translate(-1801.000000, -449.000000)" fill="#007ADA" fill-rule="nonzero">
            <path d="M1809.5,465 C1813.64214,465 1817,461.642136 1817,457.5 C1817,453.357864 1813.64214,450 1809.5,450 C1805.35786,450 1802,453.357864 1802,457.5 C1802,461.642136 1805.35786,465 1809.5,465 Z M1809.5,466 C1804.80558,466 1801,462.19442 1801,457.5 C1801,452.80558 1804.80558,449 1809.5,449 C1814.19442,449 1818,452.80558 1818,457.5 C1818,462.19442 1814.19442,466 1809.5,466 Z M1810,458 L1813.5,458 C1813.77614,458 1814,458.223858 1814,458.5 C1814,458.776142 1813.77614,459 1813.5,459 L1809.5,459 C1809.22386,459 1809,458.776142 1809,458.5 L1809,454.5 C1809,454.223858 1809.22386,454 1809.5,454 C1809.77614,454 1810,454.223858 1810,454.5 L1810,458 Z" id="合并形状"></path>
        </g>
    </g>
</svg>