<?xml version="1.0" encoding="UTF-8"?>
<svg width="18px" height="18px" viewBox="0 0 18 18" version="1.1" xmlns="http://www.w3.org/2000/svg" xmlns:xlink="http://www.w3.org/1999/xlink">
    <!-- Generator: Sketch 52 (66869) - http://www.bohemiancoding.com/sketch -->
    <title>已选框</title>
    <desc>Created with Sketch.</desc>
    <g id="管理员" stroke="none" stroke-width="1" fill="none" fill-rule="evenodd">
        <g id="画板" transform="translate(-100.000000, -2142.000000)" fill="#4985FD">
            <path d="M101,2142 L117,2142 C117.552285,2142 118,2142.44772 118,2143 L118,2159 C118,2159.55228 117.552285,2160 117,2160 L101,2160 C100.447715,2160 100,2159.55228 100,2159 L100,2143 C100,2142.44772 100.447715,2142 101,2142 Z M108.772971,2154.07627 L114.076272,2148.77297 C114.369165,2148.48008 114.369165,2148.0052 114.076272,2147.71231 C113.783378,2147.41942 113.308505,2147.41942 113.015611,2147.71231 L108.242641,2152.48528 L105.59099,2149.83363 C105.298097,2149.54074 104.823223,2149.54074 104.53033,2149.83363 C104.237437,2150.12652 104.237437,2150.6014 104.53033,2150.89429 L107.712311,2154.07627 C108.005204,2154.36916 108.480078,2154.36916 108.772971,2154.07627 Z" id="已选框"></path>
        </g>
    </g>
</svg>