<?xml version="1.0" encoding="UTF-8"?>
<svg width="13px" height="13px" viewBox="0 0 13 13" version="1.1" xmlns="http://www.w3.org/2000/svg" xmlns:xlink="http://www.w3.org/1999/xlink">
    <!-- Generator: Sketch 52 (66869) - http://www.bohemiancoding.com/sketch -->
    <title>筛选</title>
    <desc>Created with Sketch.</desc>
    <g id="管理员" stroke="none" stroke-width="1" fill="none" fill-rule="evenodd">
        <g id="画板" transform="translate(-212.000000, -1495.000000)" fill="#000000">
            <path d="M223.846747,1495 L213.153223,1495 C212.517641,1495 212,1495.51028 212,1496.13766 C212,1496.44644 212.126141,1496.73967 212.352196,1496.95918 C212.459491,1497.06811 214.978886,1499.63338 215.905234,1500.44916 C216.015808,1500.54909 216.056752,1500.61052 216.063313,1500.62525 C216.074779,1500.65801 216.091165,1500.78824 216.088705,1500.85295 C216.053487,1501.98079 216.088705,1504.397 216.088705,1504.42157 L216.104271,1504.49775 C216.115737,1504.52478 216.223032,1504.75902 216.607986,1504.76066 L216.611266,1504.76066 C217.018333,1504.76066 217.112521,1504.52968 217.127268,1504.483 L217.137093,1500.87506 C217.148559,1500.53106 217.137913,1500.31237 217.107601,1500.22555 C217.049451,1500.05682 216.859434,1499.88564 216.65221,1499.71119 L216.585874,1499.65386 C215.781567,1498.91426 213.622555,1496.75604 213.17945,1496.30965 L213.18273,1496.29655 L213.082802,1496.21218 C213.068055,1496.1999 213.043483,1496.17369 213.043483,1496.13765 C213.043483,1496.0795 213.092627,1496.03281 213.153238,1496.03281 L223.846762,1496.03281 C223.907373,1496.03281 223.956517,1496.0795 223.956517,1496.13765 C223.956517,1496.17369 223.932765,1496.20318 223.904912,1496.22856 C223.87788,1496.25559 221.225798,1498.94208 220.356781,1499.71527 L220.274058,1499.78489 C220.082401,1499.94297 219.930883,1500.07648 219.883378,1500.23536 C219.8498,1500.34594 219.853081,1500.42784 219.857986,1500.55234 C219.860446,1500.61541 219.863727,1500.69813 219.863727,1500.81526 L219.864547,1507.43895 C219.864547,1507.77968 220.062764,1508 220.369082,1508 C220.576305,1508 220.704072,1507.91482 220.774508,1507.84356 C220.933407,1507.68138 220.934227,1507.46024 220.934227,1507.43813 C220.934227,1507.43813 220.912115,1502.57541 220.912115,1500.87833 C220.912115,1500.82836 220.911295,1500.67766 220.925221,1500.6367 C220.944053,1500.59821 221.041522,1500.50484 221.07756,1500.46962 L221.324907,1500.22718 C223.70835,1497.88304 224.415188,1497.18849 224.620771,1496.94522 L224.637158,1496.96243 C224.871414,1496.74456 225,1496.45135 225,1496.13765 C224.99997,1495.51026 224.482329,1495 223.846747,1495 Z" id="筛选"></path>
        </g>
    </g>
</svg>