<?xml version="1.0" encoding="UTF-8"?>
<svg width="23px" height="23px" viewBox="0 0 23 23" version="1.1" xmlns="http://www.w3.org/2000/svg" xmlns:xlink="http://www.w3.org/1999/xlink">
    <!-- Generator: Sketch 52 (66869) - http://www.bohemiancoding.com/sketch -->
    <title>群发历史</title>
    <desc>Created with Sketch.</desc>
    <g id="群发历史" stroke="none" stroke-width="1" fill="none" fill-rule="evenodd">
        <path d="M9.06090944,7.63341441 C8.70940096,7.95945189 8.38758775,8.31639461 8.09966751,8.69971117 L8.49945072,9 L8.49945072,8.5 L2.5,8.5 L9.40093151,8.5 L9.40093151,8 L9.06090944,7.63341441 Z M4.75820114,13.5 L2.5,13.5 L4.75820114,13.5 Z M4.75820114,13.5 L7.01640228,13.5 L7.01640228,13 L6.51748185,12.9671609 C6.50584337,13.1439826 6.5,13.3216596 6.5,13.5 C6.5,13.6783404 6.50584337,13.8560174 6.51748185,14.0328391 L7.01640228,14 L7.01640228,13.5 L4.75820114,13.5 Z M5.49972536,18.5 L8.49945072,18.5 L8.49945072,18 L8.09966751,18.3002888 C8.38758775,18.6836054 8.70940096,19.0405481 9.06090944,19.3665856 L9.40093151,19 L9.40093151,18.5 L5.49972536,18.5 Z M2.5,3.5 L18.5,3.5 L2.5,3.5 Z M15,19.5 C11.9624339,19.5 9.5,17.0375661 9.5,14 C9.5,10.9624339 11.9624339,8.5 15,8.5 C18.0375661,8.5 20.5,10.9624339 20.5,14 C20.5,17.0375661 18.0375661,19.5 15,19.5 Z M15,19.5 C18.0375661,19.5 20.5,17.0375661 20.5,14 C20.5,10.9624339 18.0375661,8.5 15,8.5 C11.9624339,8.5 9.5,10.9624339 9.5,14 C9.5,17.0375661 11.9624339,19.5 15,19.5 Z" id="合并形状" stroke="#979797" fill="#D8D8D8"></path>
    </g>
</svg>