<?xml version="1.0" encoding="UTF-8"?>
<svg width="17px" height="15px" viewBox="0 0 17 15" version="1.1" xmlns="http://www.w3.org/2000/svg" xmlns:xlink="http://www.w3.org/1999/xlink">
    <!-- Generator: Sketch 46.2 (44496) - http://www.bohemiancoding.com/sketch -->
    <title>Combined Shape@2x</title>
    <desc>Created with Sketch.</desc>
    <defs></defs>
    <g id="Page-1" stroke="none" stroke-width="1" fill="none" fill-rule="evenodd">
        <g id="患者详情0904" transform="translate(-1021.000000, -19.000000)" fill="#09888F">
            <path d="M1032.90192,23.1341416 L1035,19.500167 C1035.27614,19.0218744 1035.88773,18.8579992 1036.36603,19.1341416 C1036.84432,19.4102839 1037.00819,20.0218744 1036.73205,20.500167 L1035.21132,23.1341416 L1036.5,23.1341416 L1036.5,23.1341416 C1037.32843,23.1341416 1038,23.8057144 1038,24.6341416 L1038,24.6341416 C1038,25.3085622 1037.55491,25.8790269 1036.94245,26.0678205 C1036.60916,28.7517803 1034.85778,30.9958251 1032.46147,32.0267821 C1032.78149,32.1935429 1033,32.528339 1033,32.9141709 C1033,33.4664556 1032.55228,33.9141709 1032,33.9141709 L1027,33.9141709 C1026.44772,33.9141709 1026,33.4664556 1026,32.9141709 C1026,32.528339 1026.21851,32.1935429 1026.53853,32.0267821 C1024.14222,30.9958251 1022.39084,28.7517803 1022.05755,26.0678205 C1021.44509,25.8790269 1021,25.3085622 1021,24.6341416 L1021,24.6341416 L1021,24.6341416 C1021,23.8057144 1021.67157,23.1341416 1022.5,23.1341416 L1022.5,23.1341416 L1032.90192,23.1341416 Z M1034.40303,23.1341416 L1036.13833,20.1285162 C1036.21427,19.9969857 1036.16921,19.8287983 1036.03768,19.7528592 C1035.90615,19.67692 1035.73796,19.7219857 1035.66202,19.8535162 L1035.66202,19.8535162 L1033.76795,23.1341416 L1034.40303,23.1341416 Z M1022.79962,26.1341416 C1023.24788,29.2443277 1025.80878,31.6714846 1028.98088,31.9141709 L1030.02908,31.9141709 C1033.20118,31.6714846 1035.76208,29.2443277 1036.21034,26.1341416 L1022.79962,26.1341416 Z M1027.025,32.6641709 C1026.87312,32.6641709 1026.75,32.7872926 1026.75,32.9391709 C1026.75,33.0910492 1026.87312,33.2141709 1027.025,33.2141709 L1032.025,33.2141709 C1032.17688,33.2141709 1032.3,33.0910492 1032.3,32.9391709 C1032.3,32.7872926 1032.17688,32.6641709 1032.025,32.6641709 L1032.025,32.6641709 L1027.025,32.6641709 Z M1022.45498,23.8841416 C1022.05457,23.8841416 1021.72998,24.2087351 1021.72998,24.6091416 C1021.72998,25.0095481 1022.05457,25.3341416 1022.45498,25.3341416 L1036.45498,25.3341416 C1036.85539,25.3341416 1037.17998,25.0095481 1037.17998,24.6091416 C1037.17998,24.2087351 1036.85539,23.8841416 1036.45498,23.8841416 L1036.45498,23.8841416 L1022.45498,23.8841416 Z M1031.01858,29.4746238 C1030.38275,30.5946185 1029.73557,31.2721785 1029.73557,31.2721785 L1029.73557,28.7571838 L1029.2018,30.0871911 C1029.2018,30.0871911 1028.78276,30.165149 1028.51578,29.4748241 C1028.03697,28.2347555 1029.80499,27.2721785 1029.80499,27.2721785 C1029.80499,27.2721785 1031.65377,28.3530607 1031.01858,29.4746238 Z" id="Combined-Shape"></path>
        </g>
    </g>
</svg>