<?xml version="1.0" encoding="UTF-8"?>
<svg width="19px" height="19px" viewBox="0 0 19 19" version="1.1" xmlns="http://www.w3.org/2000/svg" xmlns:xlink="http://www.w3.org/1999/xlink">
    <!-- Generator: Sketch 43 (38999) - http://www.bohemiancoding.com/sketch -->
    <title>Combined Shape Copy 2</title>
    <desc>Created with Sketch.</desc>
    <defs></defs>
    <g id="Page-1" stroke="none" stroke-width="1" fill="none" fill-rule="evenodd">
        <path d="M9.13369031,7.71591515 L1.70585674,0.28808158 C1.3238818,-0.0938933651 0.685379834,-0.0992303485 0.294855543,0.291293943 C-0.0983914128,0.684540899 -0.097106973,1.31354499 0.29164318,1.70229514 L7.71947675,9.13012871 L0.29164318,16.5579623 C-0.097106973,16.9467124 -0.0983914128,17.5757165 0.294855543,17.9689635 C0.685379834,18.3594878 1.3238818,18.3541508 1.70585674,17.9721758 L9.13369031,10.5443423 L16.5615239,17.9721758 C16.9434988,18.3541508 17.5820008,18.3594878 17.9725251,17.9689635 C18.365772,17.5757165 18.3644876,16.9467124 17.9757374,16.5579623 L10.5479039,9.13012871 L17.9757374,1.70229514 C18.3644876,1.31354499 18.365772,0.684540899 17.9725251,0.291293943 C17.5820008,-0.0992303485 16.9434988,-0.0938933651 16.5615239,0.28808158 L9.13369031,7.71591515 Z" id="Combined-Shape-Copy-2" fill="#08888F"></path>
    </g>
</svg>