<?xml version="1.0" encoding="UTF-8"?>
<svg width="16px" height="17px" viewBox="0 0 16 17" version="1.1" xmlns="http://www.w3.org/2000/svg" xmlns:xlink="http://www.w3.org/1999/xlink">
    <!-- Generator: Sketch 46.2 (44496) - http://www.bohemiancoding.com/sketch -->
    <title>Combined Shape</title>
    <desc>Created with Sketch.</desc>
    <defs></defs>
    <g id="Page-1" stroke="none" stroke-width="1" fill="none" fill-rule="evenodd">
        <g id="患者详情0904" transform="translate(-1087.000000, -18.000000)" fill="#09888F">
            <path d="M1095.4,27.6 L1097.4,27.6 C1097.62091,27.6 1097.8,27.7790861 1097.8,28 C1097.8,28.2209139 1097.62091,28.4 1097.4,28.4 L1095,28.4 L1095,28.4 C1094.88954,28.4 1094.78954,28.3552285 1094.71716,28.2828427 C1094.64477,28.2104569 1094.6,28.1104569 1094.6,28 L1094.6,25.6 C1094.6,25.3790861 1094.77909,25.2 1095,25.2 C1095.22091,25.2 1095.4,25.3790861 1095.4,25.6 L1095.4,27.6 Z M1099,19.6 L1100,19.6 L1100,19.6 C1101.65685,19.6 1103,20.9431458 1103,22.6 L1103,31.8 L1103,31.8 C1103,33.4568542 1101.65685,34.8 1100,34.8 L1090,34.8 L1090,34.8 C1088.34315,34.8 1087,33.4568542 1087,31.8 L1087,22.6 L1087,22.6 C1087,20.9431458 1088.34315,19.6 1090,19.6 L1090,19.6 L1091,19.6 L1091,18.4 L1091,18.4 C1091,18.1790861 1091.17909,18 1091.4,18 L1091.4,18 L1091.4,18 C1091.62091,18 1091.8,18.1790861 1091.8,18.4 L1091.8,19.6 L1098.2,19.6 L1098.2,18.4 L1098.2,18.4 C1098.2,18.1790861 1098.37909,18 1098.6,18 C1098.82091,18 1099,18.1790861 1099,18.4 L1099,19.6 Z M1099,20.4 L1099,20.8 L1099,20.8 C1099,21.0209139 1098.82091,21.2 1098.6,21.2 C1098.37909,21.2 1098.2,21.0209139 1098.2,20.8 L1098.2,20.4 L1091.8,20.4 L1091.8,20.8 L1091.8,20.8 C1091.8,21.0209139 1091.62091,21.2 1091.4,21.2 C1091.17909,21.2 1091,21.0209139 1091,20.8 L1091,20.4 L1089.8,20.4 L1089.8,20.4 C1088.69543,20.4 1087.8,21.2954305 1087.8,22.4 L1087.8,22.4 L1087.8,32 C1087.8,33.1045695 1088.69543,34 1089.8,34 L1100.2,34 C1101.30457,34 1102.2,33.1045695 1102.2,32 L1102.2,22.4 C1102.2,21.2954305 1101.30457,20.4 1100.2,20.4 L1099,20.4 Z M1095,32.4 C1092.34903,32.4 1090.2,30.2509668 1090.2,27.6 C1090.2,24.9490332 1092.34903,22.8 1095,22.8 C1097.65097,22.8 1099.8,24.9490332 1099.8,27.6 C1099.8,30.2509668 1097.65097,32.4 1095,32.4 Z M1095,31.6 C1097.20914,31.6 1099,29.809139 1099,27.6 C1099,25.390861 1097.20914,23.6 1095,23.6 C1092.79086,23.6 1091,25.390861 1091,27.6 C1091,29.809139 1092.79086,31.6 1095,31.6 Z" id="Combined-Shape"></path>
        </g>
    </g>
</svg>