<?xml version="1.0" encoding="UTF-8"?>
<svg width="18px" height="16px" viewBox="0 0 18 16" version="1.1" xmlns="http://www.w3.org/2000/svg" xmlns:xlink="http://www.w3.org/1999/xlink">
    <!-- Generator: Sketch 43 (38999) - http://www.bohemiancoding.com/sketch -->
    <title>Combined Shape Copy 3</title>
    <desc>Created with Sketch.</desc>
    <defs></defs>
    <g id="Page-1" stroke="none" stroke-width="1" fill="none" fill-rule="evenodd">
        <path d="M13,10 L15.5095215,10 C15.7804053,10 16,10.2319336 16,10.5 C16,10.7761424 15.7849426,11 15.5095215,11 L12.4904785,11 C12.3566322,11 12.2353078,10.9433747 12.1468088,10.8537444 C12.0546854,10.767031 12,10.6456493 12,10.5095215 L12,7.49047852 C12,7.21959471 12.2319336,7 12.5,7 C12.7761424,7 13,7.21505737 13,7.49047852 L13,10 Z M8.14746968,3.75 C7.7221319,4.04120282 7.3313058,4.37685146 6.98213576,4.75 L0.495861896,4.75 C0.222004933,4.75 0,4.51806641 0,4.25 C0,3.97385763 0.218103136,3.75 0.495861896,3.75 L8.14746968,3.75 Z M5.40904177,7.5 L0.495861896,7.5 C0.218103136,7.5 0,7.72385763 0,8 C0,8.26806641 0.222004933,8.5 0.495861896,8.5 L5.19958956,8.5 C5.24424664,8.15819972 5.31471727,7.8242313 5.40904177,7.5 Z M5.40904177,11.25 L0.495861896,11.25 C0.218103136,11.25 0,11.4738576 0,11.75 C0,12.0180664 0.222004933,12.25 0.495861896,12.25 L5.78897813,12.25 C5.63688005,11.9292316 5.50944672,11.5951323 5.40904177,11.25 Z M0,0.5 C0,0.223857625 0.218103136,0 0.495861896,0 L14.9327095,0 C15.2065665,0 15.4285714,0.231933594 15.4285714,0.5 C15.4285714,0.776142375 15.2104683,1 14.9327095,1 L0.495861896,1 C0.222004933,1 0,0.768066406 0,0.5 Z M12,16 C8.6862915,16 6,13.3137085 6,10 C6,6.6862915 8.6862915,4 12,4 C15.3137085,4 18,6.6862915 18,10 C18,13.3137085 15.3137085,16 12,16 Z M12,15 C14.7614237,15 17,12.7614237 17,10 C17,7.23857625 14.7614237,5 12,5 C9.23857625,5 7,7.23857625 7,10 C7,12.7614237 9.23857625,15 12,15 Z" id="Combined-Shape-Copy-3" fill="#999999"></path>
    </g>
</svg>