<?xml version="1.0" encoding="UTF-8"?>
<svg width="16px" height="14px" viewBox="0 0 16 14" version="1.1" xmlns="http://www.w3.org/2000/svg" xmlns:xlink="http://www.w3.org/1999/xlink">
    <!-- Generator: Sketch 43 (38999) - http://www.bohemiancoding.com/sketch -->
    <title>Combined Shape</title>
    <desc>Created with Sketch.</desc>
    <defs></defs>
    <g id="Page-1" stroke="none" stroke-width="1" fill="none" fill-rule="evenodd">
        <path d="M0.384709281,7.61967997 C0.150524738,7.43733891 0,7.15272692 0,6.83040179 C0,6.50966828 0.149955429,6.22420169 0.384641088,6.04121026 C0.408210843,6.01125878 0.433736876,5.98245135 0.461211683,5.95497655 L6.12457475,0.291613476 C6.51330168,-0.0971134544 7.14228695,-0.0983790686 7.53553391,0.294867887 C7.9260582,0.685392179 7.9204373,1.32417805 7.53878832,1.70582704 L3.41421356,5.83040179 L14.9991283,5.83040179 C15.5518945,5.83040179 16,6.27426662 16,6.83040179 C16,7.38268654 15.5553691,7.83040179 14.9991283,7.83040179 L3.41421356,7.83040179 L7.53878832,11.9549765 C7.9204373,12.3366255 7.9260582,12.9754114 7.53553391,13.3659357 C7.14228695,13.7591827 6.51330168,13.757917 6.12457475,13.3691901 L0.461211683,7.70582704 C0.433763371,7.67837873 0.408260076,7.64960037 0.384709281,7.61967997 Z" id="Combined-Shape" fill="#999999" transform="translate(8.000000, 6.830402) scale(-1, 1) translate(-8.000000, -6.830402) "></path>
    </g>
</svg>