<?xml version="1.0" encoding="UTF-8"?>
<svg width="15px" height="18px" viewBox="0 0 15 18" version="1.1" xmlns="http://www.w3.org/2000/svg" xmlns:xlink="http://www.w3.org/1999/xlink">
    <!-- Generator: Sketch 46.2 (44496) - http://www.bohemiancoding.com/sketch -->
    <title>Combined Shape</title>
    <desc>Created with Sketch.</desc>
    <defs></defs>
    <g id="Page-1" stroke="none" stroke-width="1" fill="none" fill-rule="evenodd">
        <g id="患者详情0904" transform="translate(-1122.000000, -18.000000)" fill="#09888F">
            <path d="M1128.79228,28.9452324 C1128.69126,28.9452324 1128.59024,28.9066938 1128.51316,28.8296166 L1125.72195,26.0384057 C1125.56779,25.8842513 1125.56779,25.6343178 1125.72195,25.4801635 L1125.72195,25.4801635 C1125.8761,25.3260091 1126.12603,25.3260091 1126.28019,25.4801635 L1126.28019,25.4801635 L1128.79228,27.9922534 L1132.9791,23.8054369 C1133.13325,23.6512826 1133.38318,23.6512826 1133.53734,23.8054369 C1133.69149,23.9595912 1133.69149,24.2095248 1133.53734,24.3636791 L1129.0714,28.8296166 C1128.99432,28.9066938 1128.8933,28.9452324 1128.79228,28.9452324 Z M1135.77976,20.5622693 L1137,20.5622693 L1137,28.4440056 L1136.99832,28.6741502 L1136.9109,28.8873334 C1135.64519,31.9638926 1133.07486,34.2864765 1129.85945,35.2591898 L1129.49803,35.3684211 L1129.13702,35.2571121 C1126.00079,34.2906956 1123.368,31.9135385 1122.09457,28.8980191 L1122,28.6760583 L1122,20.5622693 L1123.22125,20.5622693 C1125.22787,20.5610184 1127.17254,19.8768391 1128.7262,18.6254505 L1129.50055,18 L1130.2738,18.6254505 C1131.82755,19.8772632 1133.77265,20.561506 1135.77976,20.5622693 Z M1135.11873,21.2417256 C1133.3229,21.2410422 1131.58254,20.6283338 1130.19235,19.5073924 L1129.50049,18.9473299 L1128.80765,19.5073924 C1127.41753,20.6279541 1125.67757,21.2406055 1123.88217,21.2417256 L1122.78947,21.2417256 L1122.78947,28.5072552 L1122.87409,28.706011 C1124.01347,31.4062717 1126.36913,33.5349079 1129.17523,34.4002899 L1129.49824,34.4999621 L1129.82161,34.4021505 C1132.69856,33.5311298 1134.99833,31.4513614 1136.1308,28.6964424 L1136.20902,28.5055465 L1136.21053,28.2994625 L1136.21053,21.2417256 L1135.11873,21.2417256 Z" id="Combined-Shape"></path>
        </g>
    </g>
</svg>