<?xml version="1.0" encoding="UTF-8"?>
<svg width="13px" height="12px" viewBox="0 0 13 12" version="1.1" xmlns="http://www.w3.org/2000/svg" xmlns:xlink="http://www.w3.org/1999/xlink">
    <!-- Generator: Sketch 52 (66869) - http://www.bohemiancoding.com/sketch -->
    <title>更改</title>
    <desc>Created with Sketch.</desc>
    <g id="管理员" stroke="none" stroke-width="1" fill="none" fill-rule="evenodd">
        <g id="画板" transform="translate(-228.000000, -1592.000000)" fill="#007ADA">
            <path d="M239.469053,1596.5 C239.223004,1594.52684 237.539809,1593 235.5,1593 L235.5,1592 C238.092674,1592 240.22445,1593.97334 240.475312,1596.5 L241,1596.5 L240,1598 L239,1596.5 L239.469053,1596.5 Z M229.5,1599 C229.5,1601.20914 231.290861,1603 233.5,1603 L233.5,1604 C230.738576,1604 228.5,1601.76142 228.5,1599 L228,1599 L229,1597.5 L230,1599 L229.5,1599 Z M237,1600 L237,1603 L240,1603 L240,1600 L237,1600 Z M236.5,1599 L240.5,1599 C240.776142,1599 241,1599.22386 241,1599.5 L241,1603.5 C241,1603.77614 240.776142,1604 240.5,1604 L236.5,1604 C236.223858,1604 236,1603.77614 236,1603.5 L236,1599.5 C236,1599.22386 236.223858,1599 236.5,1599 Z M229,1593 L229,1596 L232,1596 L232,1593 L229,1593 Z M228.5,1592 L232.5,1592 C232.776142,1592 233,1592.22386 233,1592.5 L233,1596.5 C233,1596.77614 232.776142,1597 232.5,1597 L228.5,1597 C228.223858,1597 228,1596.77614 228,1596.5 L228,1592.5 C228,1592.22386 228.223858,1592 228.5,1592 Z" id="更改"></path>
        </g>
    </g>
</svg>