<?xml version="1.0" encoding="UTF-8"?>
<svg width="15px" height="12px" viewBox="0 0 15 12" version="1.1" xmlns="http://www.w3.org/2000/svg" xmlns:xlink="http://www.w3.org/1999/xlink">
    <!-- Generator: Sketch 52 (66869) - http://www.bohemiancoding.com/sketch -->
    <title>合并形状</title>
    <desc>Created with Sketch.</desc>
    <g id="Page-1" stroke="none" stroke-width="1" fill="none" fill-rule="evenodd">
        <g id="管理员_医院医生管理_筛选一级子机构显示" transform="translate(-894.000000, -105.000000)" fill="#007ADA" fill-rule="nonzero">
            <path d="M905,112 L906.5,112 C906.776142,112 907,112.223858 907,112.5 C907,112.776142 906.776142,113 906.5,113 L904.5,113 C904.223858,113 904,112.776142 904,112.5 L904,110.5 C904,110.223858 904.223858,110 904.5,110 C904.776142,110 905,110.223858 905,110.5 L905,112 Z M900.510917,108.333333 C900.251637,108.643457 900.020733,108.978121 899.822196,109.333333 L894.5,109.333333 C894.223858,109.333333 894,109.109476 894,108.833333 C894,108.557191 894.223858,108.333333 894.5,108.333333 L900.510917,108.333333 Z M899.052921,111.666667 C899.018002,111.939516 899,112.217656 899,112.5 C899,112.555722 899.000701,112.61128 899.002095,112.666667 L894.5,112.666667 C894.223858,112.666667 894,112.442809 894,112.166667 C894,111.890524 894.223858,111.666667 894.5,111.666667 L899.052921,111.666667 Z M899.498163,115 C899.644064,115.349866 899.819666,115.684249 900.021818,116 L894.5,116 C894.223858,116 894,115.776142 894,115.5 C894,115.223858 894.223858,115 894.5,115 L899.498163,115 Z M894.5,105 L907.5,105 C907.776142,105 908,105.223858 908,105.5 C908,105.776142 907.776142,106 907.5,106 L894.5,106 C894.223858,106 894,105.776142 894,105.5 C894,105.223858 894.223858,105 894.5,105 Z M904.5,116 C906.432997,116 908,114.432997 908,112.5 C908,110.567003 906.432997,109 904.5,109 C902.567003,109 901,110.567003 901,112.5 C901,114.432997 902.567003,116 904.5,116 Z M904.5,117 C902.014719,117 900,114.985281 900,112.5 C900,110.014719 902.014719,108 904.5,108 C906.985281,108 909,110.014719 909,112.5 C909,114.985281 906.985281,117 904.5,117 Z" id="合并形状"></path>
        </g>
    </g>
</svg>