<?xml version="1.0" encoding="UTF-8"?>
<svg width="4px" height="6px" viewBox="0 0 4 6" version="1.1" xmlns="http://www.w3.org/2000/svg" xmlns:xlink="http://www.w3.org/1999/xlink">
    <!-- Generator: Sketch 47.1 (45422) - http://www.bohemiancoding.com/sketch -->
    <title>Combined Shape</title>
    <desc>Created with Sketch.</desc>
    <defs></defs>
    <g id="Page-1" stroke="none" stroke-width="1" fill="none" fill-rule="evenodd">
        <path d="M2.24264069,2.82842712 L0.474873734,4.59619408 C0.279611588,4.79145622 0.279611588,5.10803871 0.474873734,5.30330086 L0.474873734,5.30330086 L0.474873734,5.30330086 C0.67013588,5.498563 0.986718369,5.498563 1.18198052,5.30330086 L1.18198052,5.30330086 L3.30330086,3.18198052 C3.40093193,3.08434944 3.44974747,2.95638828 3.44974747,2.82842712 C3.44974747,2.70046597 3.40093193,2.57250481 3.30330086,2.47487373 L1.18198052,0.353553391 C0.986718369,0.158291245 0.67013588,0.158291245 0.474873734,0.353553391 L0.474873734,0.353553391 L0.474873734,0.353553391 C0.279611588,0.548815536 0.279611588,0.865398026 0.474873734,1.06066017 L0.474873734,1.06066017 L2.24264069,2.82842712 Z" id="Combined-Shape" fill="#000000"></path>
    </g>
</svg>