<?xml version="1.0" encoding="UTF-8"?>
<svg width="12px" height="12px" viewBox="0 0 12 12" version="1.1" xmlns="http://www.w3.org/2000/svg" xmlns:xlink="http://www.w3.org/1999/xlink">
    <!-- Generator: Sketch 52 (66869) - http://www.bohemiancoding.com/sketch -->
    <title>合并形状 copy 6</title>
    <desc>Created with Sketch.</desc>
    <g id="Page-1" stroke="none" stroke-width="1" fill="none" fill-rule="evenodd">
        <g id="上级机构" transform="translate(-1334.000000, -493.000000)" fill="#000000" fill-rule="nonzero">
            <g id="分组-14" transform="translate(1332.000000, 486.000000)">
                <path d="M6.4246212,11.9246212 L5.4246212,11.9246212 L5.4246212,9.9246212 C5.4246212,8.26776695 6.76776695,6.9246212 8.4246212,6.9246212 C10.0814755,6.9246212 11.4246212,8.26776695 11.4246212,9.9246212 L11.4246212,11.9246212 L10.4246212,11.9246212 L10.4246212,9.9246212 C10.4246212,8.8200517 9.5291907,7.9246212 8.4246212,7.9246212 C7.3200517,7.9246212 6.4246212,8.8200517 6.4246212,9.9246212 L6.4246212,11.9246212 Z M6.4246212,14.9246212 L6.4246212,16.9246212 C6.4246212,18.0291907 7.3200517,18.9246212 8.4246212,18.9246212 C9.5291907,18.9246212 10.4246212,18.0291907 10.4246212,16.9246212 L10.4246212,14.9246212 L11.4246212,14.9246212 L11.4246212,16.9246212 C11.4246212,18.5814755 10.0814755,19.9246212 8.4246212,19.9246212 C6.76776695,19.9246212 5.4246212,18.5814755 5.4246212,16.9246212 L5.4246212,14.9246212 L6.4246212,14.9246212 Z M4.9246212,12.9246212 L11.9246212,12.9246212 C12.2007636,12.9246212 12.4246212,13.1484788 12.4246212,13.4246212 C12.4246212,13.7007636 12.2007636,13.9246212 11.9246212,13.9246212 L4.9246212,13.9246212 C4.64847883,13.9246212 4.4246212,13.7007636 4.4246212,13.4246212 C4.4246212,13.1484788 4.64847883,12.9246212 4.9246212,12.9246212 Z" id="合并形状-copy-6" transform="translate(8.424621, 13.424621) rotate(-45.000000) translate(-8.424621, -13.424621) "></path>
            </g>
        </g>
    </g>
</svg>