<?xml version="1.0" encoding="UTF-8"?>
<svg width="12px" height="12px" viewBox="0 0 12 12" version="1.1" xmlns="http://www.w3.org/2000/svg" xmlns:xlink="http://www.w3.org/1999/xlink">
    <!-- Generator: Sketch 52 (66869) - http://www.bohemiancoding.com/sketch -->
    <title>合并形状</title>
    <desc>Created with Sketch.</desc>
    <g id="管理员" stroke="none" stroke-width="1" fill="none" fill-rule="evenodd">
        <g id="医生_我的预约患者_就诊请求" transform="translate(-1698.000000, -440.000000)" fill="#F15E5E">
            <g id="分组-3-copy-2" transform="translate(1613.000000, 431.000000)">
                <path d="M91.1213203,14.4142136 L92.5355339,13 L93.2426407,13.7071068 L91.8284271,15.1213203 L93.2426407,16.5355339 L92.5355339,17.2426407 L91.1213203,15.8284271 L89.7071068,17.2426407 L89,16.5355339 L90.4142136,15.1213203 L89,13.7071068 L89.7071068,13 L91.1213203,14.4142136 Z M91,20 C93.7614237,20 96,17.7614237 96,15 C96,12.2385763 93.7614237,10 91,10 C88.2385763,10 86,12.2385763 86,15 C86,17.7614237 88.2385763,20 91,20 Z M91,21 C87.6862915,21 85,18.3137085 85,15 C85,11.6862915 87.6862915,9 91,9 C94.3137085,9 97,11.6862915 97,15 C97,18.3137085 94.3137085,21 91,21 Z" id="合并形状"></path>
            </g>
        </g>
    </g>
</svg>