<?xml version="1.0" encoding="UTF-8"?>
<svg width="30px" height="30px" viewBox="0 0 30 30" version="1.1" xmlns="http://www.w3.org/2000/svg" xmlns:xlink="http://www.w3.org/1999/xlink">
    <!-- Generator: Sketch 43 (38999) - http://www.bohemiancoding.com/sketch -->
    <title>Combined Shape Copy 3</title>
    <desc>Created with Sketch.</desc>
    <defs></defs>
    <g id="Page-1" stroke="none" stroke-width="1" fill="none" fill-rule="evenodd">
        <path d="M17.9732268,18.8590285 C15.8208223,18.3523349 14.7446058,17.148748 14.5547543,16.8953296 C14.3648169,16.6419685 14.3648169,16.3252742 14.3648169,15.945161 C14.3648169,15.8184661 14.4281103,15.6284954 14.4914037,15.5017719 L14.5547543,15.375077 C14.618019,15.2484108 14.8712212,14.614965 15.0611872,14.2348232 C15.0611872,14.17149 15.1878026,13.9814334 15.314418,13.8547672 C15.5042695,13.7281009 15.6942356,13.5381016 16.0107884,13.1580169 C16.5172213,12.3978191 16.2639905,11.7010975 15.8208223,11.384346 L15.8208223,11.2576511 C16.0740245,10.5607864 16.2006685,9.73739854 16.1373751,8.72381092 C16.0740245,7.64691882 15.0611872,6 12.4657005,6 C9.87009928,6 8.85726202,7.58361433 8.79388276,8.72381092 C8.730618,9.73739854 8.85726202,10.560815 9.11049281,11.1943466 L9.11049281,11.3210415 C8.66729599,11.7010975 8.47741584,12.3978477 8.92052678,13.1580456 C9.17378619,13.5381016 9.42701697,13.7281009 9.6168685,13.8547672 C9.74345526,13.981462 9.87009928,14.1715473 9.87009928,14.2348518 C10.0600367,14.6149937 10.3132675,15.185049 10.3765036,15.3751056 L10.4398829,15.5018005 C10.503119,15.6917999 10.5664696,15.8184947 10.5664696,15.945161 C10.5664696,16.2619411 10.5664696,16.6419685 10.3765036,16.8953582 C10.1866521,17.148748 9.11046418,18.3523349 6.95805976,18.8590572 C5.05891475,19.3025322 5,19.6192837 5,21.5829826 C5,21.7096489 5.12658677,21.8996482 5.31655279,21.8996482 L18.0024073,21.8996482 M0,15 C0,6.71572875 6.71390727,0 15,0 C23.2842712,0 30,6.71390727 30,15 C30,23.2842712 23.2860927,30 15,30 C6.71572875,30 0,23.2860927 0,15 Z M19,20.5 C19,20.7680664 19.2198305,21 19.4910052,21 L24.5089948,21 C24.7721195,21 25,20.7761424 25,20.5 C25,20.2319336 24.7801695,20 24.5089948,20 L19.4910052,20 C19.2278805,20 19,20.2238576 19,20.5 Z M19,10.5 C19,10.7680664 19.2198305,11 19.4910052,11 L24.5089948,11 C24.7721195,11 25,10.7761424 25,10.5 C25,10.2319336 24.7801695,10 24.5089948,10 L19.4910052,10 C19.2278805,10 19,10.2238576 19,10.5 Z M19,15.5 C19,15.7680664 19.2198305,16 19.4910052,16 L24.5089948,16 C24.7721195,16 25,15.7761424 25,15.5 C25,15.2319336 24.7801695,15 24.5089948,15 L19.4910052,15 C19.2278805,15 19,15.2238576 19,15.5 Z" id="Combined-Shape-Copy-3" fill="#08888F"></path>
    </g>
</svg>