<?xml version="1.0" encoding="UTF-8"?>
<svg width="30px" height="30px" viewBox="0 0 30 30" version="1.1" xmlns="http://www.w3.org/2000/svg" xmlns:xlink="http://www.w3.org/1999/xlink">
    <!-- Generator: Sketch 43 (38999) - http://www.bohemiancoding.com/sketch -->
    <title>Combined Shape</title>
    <desc>Created with Sketch.</desc>
    <defs></defs>
    <g id="Page-1" stroke="none" stroke-width="1" fill="none" fill-rule="evenodd">
        <path d="M15,15.000784 L15,12.000784 L16,12.000784 L16,15.000784 L19,15.000784 L19,16.000784 L16,16.000784 L16,19.000784 L15,19.000784 L15,16.000784 L12,16.000784 L12,15.000784 L15,15.000784 Z M0,15 C0,6.71572875 6.71390727,0 15,0 C23.2842712,0 30,6.71390727 30,15 C30,23.2842712 23.2860927,30 15,30 C6.71572875,30 0,23.2860927 0,15 Z M21.9683365,11.004263 L17.9955098,7 L17.9955098,9.53098827 C17.9955098,10.2562814 18.4883989,11.004263 19.286499,11.004263 L21.9683365,11.004263 Z M17.0061844,7.03564662 L10.2386219,7.00078395 C9.55479938,7.00078395 9,7.50497156 9,8.12641209 L9,20.8751558 C9,21.4965963 9.55479938,22.000784 10.2386219,22.000784 L20.7613781,22.000784 C21.4452006,22.000784 22,21.4965963 22,20.8751558 L22,11.9772252 L19.0066638,11.9772252 C17.5247412,11.9772252 17.0061844,11.1009732 17.0061844,9.75423958 L17.0061844,7.03564662 Z" id="Combined-Shape" fill="#08888F"></path>
    </g>
</svg>