<?xml version="1.0" encoding="UTF-8"?>
<svg width="30px" height="30px" viewBox="0 0 30 30" version="1.1" xmlns="http://www.w3.org/2000/svg" xmlns:xlink="http://www.w3.org/1999/xlink">
    <!-- Generator: Sketch 43 (38999) - http://www.bohemiancoding.com/sketch -->
    <title>Combined Shape</title>
    <desc>Created with Sketch.</desc>
    <defs></defs>
    <g id="Page-1" stroke="none" stroke-width="1" fill="none" fill-rule="evenodd">
        <path d="M0,15 C0,6.71572875 6.71390727,0 15,0 C23.2842712,0 30,6.71390727 30,15 C30,23.2842712 23.2860927,30 15,30 C6.71572875,30 0,23.2860927 0,15 Z M23.5436566,20.3879423 C23.5436566,18.9053687 22.2822656,17.7001408 20.7313356,17.7001408 L20.5489618,17.7001408 C18.9972233,17.7001408 17.7358548,18.9053687 17.7358548,20.3879423 L17.7358548,22.2955673 C17.7358548,23.1079717 17.043975,23.7695158 16.1937055,23.7695158 L16.0121401,23.7695158 C15.1618931,23.7695158 14.4700133,23.1079717 14.4700133,22.2955673 L14.4700133,18.7223026 L14.9955311,18.7223026 L14.9955311,18.1801849 C18.1661771,17.8981408 18.8172748,14.1952364 19.293971,11.4736408 C19.3315641,11.2599349 19.3683713,11.0509496 19.4059644,10.8451187 C19.6283343,9.6210305 19.4627583,8.67269962 18.9140423,8.02688344 C18.5344505,7.58195697 17.9870371,7.30772168 17.3975166,7.26713344 L16.4168838,7.26713344 C16.2470186,7.09597903 16.0139142,6.99962609 15.7705919,7.00000109 C15.2770754,7.00000109 14.8771375,7.38183933 14.8771375,7.85323638 C14.8771375,8.3246555 15.2770754,8.70728786 15.7705919,8.70728786 C15.9921533,8.70728786 16.206506,8.62635403 16.372082,8.48100844 L17.3599234,8.48100844 C17.5814849,8.51242021 17.7838455,8.62322168 17.9294122,8.79292021 C18.2317742,9.14961138 18.3109578,9.78600844 18.1557795,10.6361114 C18.1181863,10.8427584 18.0805932,11.0556702 18.0437861,11.2725084 C17.5094875,14.3217217 16.9375958,16.6881923 14.9971256,16.9576849 L14.9971256,16.4674276 L12.6135324,16.4674276 L12.6135324,16.9702584 C10.5874783,16.7761849 10.0043805,14.3783026 9.46047034,11.2740967 L9.34849941,10.6376776 C9.19572398,9.79937609 9.26931579,9.16611138 9.56206612,8.80862609 C9.70763283,8.63107462 9.91560773,8.51400844 10.1443554,8.4817805 L11.13058,8.4817805 C11.2961559,8.62792021 11.5097227,8.70885403 11.7312841,8.70805991 C12.2256091,8.70805991 12.6247385,8.32622168 12.6247385,7.85482462 C12.6247385,7.3834055 12.2248006,7.00156727 11.7312841,7.00156727 C11.488119,7.00156727 11.2553739,7.09743491 11.0849921,7.26869962 L10.1043594,7.26869962 C9.51495119,7.30908933 8.96756017,7.58303786 8.58783362,8.02767756 C8.03992609,8.67349374 7.87275568,9.6210305 8.09591156,10.8451187 C8.13350469,11.0493834 8.17028937,11.2599349 8.2078825,11.4736408 C8.69021539,14.2258761 9.35009386,17.982207 12.6151269,18.1880599 L12.6151269,18.7230967 L13.2006275,18.7230967 L13.2006275,22.2955673 C13.2006275,23.7773687 14.4628046,24.9833687 16.013757,24.9833687 L16.1937055,24.9833687 C17.7454439,24.9833687 19.0068349,23.7773687 19.0068349,22.2955673 L19.0068349,20.3879423 C19.0068349,19.5747658 19.6987147,18.9140158 20.5489618,18.9140158 L20.7305271,18.9140158 C21.5815826,18.9140158 22.2734624,19.5747658 22.2734624,20.3879423 L22.2734624,21.1264937 C21.4568112,21.3857511 20.8673131,22.1211481 20.8673131,22.9893173 C20.8673131,24.0751408 21.7871546,24.9550893 22.9229657,24.9550893 C24.0595628,24.9550893 24.9802127,24.0751408 24.9802127,22.9893173 C24.9802127,22.1101629 24.3762973,21.3669129 23.5436566,21.1154864 L23.5436566,20.3879423 Z" id="Combined-Shape" fill="#08888F"></path>
    </g>
</svg>