<?xml version="1.0" encoding="UTF-8"?>
<svg width="30px" height="30px" viewBox="0 0 30 30" version="1.1" xmlns="http://www.w3.org/2000/svg" xmlns:xlink="http://www.w3.org/1999/xlink">
    <!-- Generator: Sketch 43 (38999) - http://www.bohemiancoding.com/sketch -->
    <title>Combined Shape</title>
    <desc>Created with Sketch.</desc>
    <defs></defs>
    <g id="Page-1" stroke="none" stroke-width="1" fill="none" fill-rule="evenodd">
        <path d="M0,15 C0,6.71572875 6.71390727,0 15,0 C23.2842712,0 30,6.71390727 30,15 C30,23.2842712 23.2860927,30 15,30 C6.71572875,30 0,23.2860927 0,15 Z M20.1685518,16.319843 C19.4245848,15.0798833 18.6031024,14.0259209 17.673116,13.4679291 C17.7506315,13.1734279 17.843619,12.8479382 17.9831114,12.5379649 C17.843619,11.7319767 17.2546387,11.5614736 16.8361393,11.5304852 C17.7661257,10.8330009 18.6340908,10.6315094 18.6340908,10.6315094 C18.7425948,9.67053454 17.843619,9.84103758 17.843619,9.84103758 C16.9446433,10.0425291 16.2316648,10.4145015 15.673673,10.8639894 C17.1151463,9.34504484 18.8356045,8.95755606 18.8356045,8.95755606 C18.9905912,7.7330906 17.8281248,7.95007634 17.8281248,7.95007634 C14.1857169,8.77155878 12.9767457,11.8249642 12.651256,12.894443 C12.418776,12.7704448 12.1552854,12.6929515 11.8917726,12.6464467 L11.8917726,11.2359839 C11.8917726,11.2359839 12.6202675,9.87202605 14.0152138,8.89555696 C14.5112066,7.70207997 13.1937536,7.22160363 13.1937536,7.22160363 L11.8917726,8.35305936 L11.8917726,6.8651033 C11.1323115,6.04362087 10.3728281,6.8651033 10.3728281,6.8651033 L10.3728281,13.002947 C9.907846,13.3284367 9.59785054,13.8399236 9.38084263,14.4598924 C8.62138145,16.6763433 9.02436447,18.9082885 10.5588254,20.6752294 C10.5588254,20.6752294 11.1323115,22.9226688 14.8522127,23.8991379 C18.5876081,24.8756291 19.781063,24.5036346 20.354549,23.8991379 C20.9280351,23.2946634 21.780506,19.0322867 20.1685518,16.319843 Z" id="Combined-Shape" fill="#08888F"></path>
    </g>
</svg>