<?xml version="1.0" encoding="UTF-8"?>
<svg width="30px" height="30px" viewBox="0 0 30 30" version="1.1" xmlns="http://www.w3.org/2000/svg" xmlns:xlink="http://www.w3.org/1999/xlink">
    <!-- Generator: Sketch 43 (38999) - http://www.bohemiancoding.com/sketch -->
    <title>Combined Shape</title>
    <desc>Created with Sketch.</desc>
    <defs></defs>
    <g id="Page-1" stroke="none" stroke-width="1" fill="none" fill-rule="evenodd">
        <g id="Artboard" transform="translate(-795.000000, -147.000000)" fill="#08888F">
            <path d="M795,162 C795,153.715729 801.713907,147 810,147 C818.284271,147 825,153.713907 825,162 C825,170.284271 818.286093,177 810,177 C801.715729,177 795,170.286093 795,162 Z M810,172 C815.522847,172 820,167.522847 820,162 C820,156.477153 815.522847,152 810,152 C804.477153,152 800,156.477153 800,162 C800,167.522847 804.477153,172 810,172 Z M806,165 C805.447715,165 805,164.104569 805,163 C805,161.895431 805.447715,161 806,161 C806.552285,161 807,161.895431 807,163 C807,164.104569 806.552285,165 806,165 Z M814,165 C813.447715,165 813,164.104569 813,163 C813,161.895431 813.447715,161 814,161 C814.552285,161 815,161.895431 815,163 C815,164.104569 814.552285,165 814,165 Z M808,167.5 C808,167.223858 808.215057,167 808.490479,167 L811.509521,167 C811.780405,167 812,167.231934 812,167.5 C812,167.776142 811.784943,168 811.509521,168 L808.490479,168 C808.219595,168 808,167.768066 808,167.5 Z M804,158.492523 C803.447715,158.492523 803,158.044808 803,157.492523 C803,156.940238 804,156 804,156 C804,156 805,156.940238 805,157.492523 C805,158.044808 804.552285,158.492523 804,158.492523 Z M815,158.492523 C814.447715,158.492523 814,158.044808 814,157.492523 C814,156.940238 815,156 815,156 C815,156 816,156.940238 816,157.492523 C816,158.044808 815.552285,158.492523 815,158.492523 Z M810,156.492523 C809.447715,156.492523 809,156.044808 809,155.492523 C809,154.940238 810,154 810,154 C810,154 811,154.940238 811,155.492523 C811,156.044808 810.552285,156.492523 810,156.492523 Z" id="Combined-Shape"></path>
        </g>
    </g>
</svg>