<?xml version="1.0" encoding="UTF-8"?>
<svg width="30px" height="30px" viewBox="0 0 30 30" version="1.1" xmlns="http://www.w3.org/2000/svg" xmlns:xlink="http://www.w3.org/1999/xlink">
    <!-- Generator: Sketch 43 (38999) - http://www.bohemiancoding.com/sketch -->
    <title>Combined Shape</title>
    <desc>Created with Sketch.</desc>
    <defs></defs>
    <g id="Page-1" stroke="none" stroke-width="1" fill="none" fill-rule="evenodd">
        <g id="Artboard" transform="translate(-959.000000, -148.000000)" fill="#08888F">
            <path d="M959,163 C959,154.715729 965.713907,148 974,148 C982.284271,148 989,154.713907 989,163 C989,171.284271 982.286093,178 974,178 C965.715729,178 959,171.286093 959,163 Z M981.968593,155.513703 L981.924843,155.153123 L981.573216,155.092203 C981.55053,155.087264 981.041725,155 980.288239,155 C979.411602,155 978.10556,155.12184 976.870816,155.701402 C975.924502,156.144307 975.089996,157.184885 974.389983,158.791854 C974.276555,159.050352 974.177711,159.302264 974.090209,159.537711 C973.945994,159.053645 973.762889,158.605801 973.540894,158.199119 C973.124451,157.436797 972.573515,156.819365 971.90429,156.366582 C970.269307,155.258498 968.686176,155.026344 967.6475,155.026344 C966.885912,155.026344 966.396551,155.151477 966.377106,155.158063 L966.049786,155.24368 L966.018998,155.586148 C966.015757,155.624018 965.934737,156.542756 966.134046,157.705174 C966.252336,158.393404 966.445163,159.028947 966.706048,159.593692 C967.03985,160.313205 967.48546,160.917465 968.033155,161.391653 C968.819049,162.071651 969.651934,162.572182 970.507505,162.878428 C971.183212,163.120461 971.876743,163.243948 972.567034,163.243948 C972.99968,163.243948 973.369132,163.194553 973.64784,163.141866 L973.64784,164.42283 L968.98757,164.42283 L968.98757,170.229981 C968.98757,171.128962 969.707028,171.860001 970.591766,171.860001 L977.904631,171.860001 C978.789369,171.860001 979.508826,171.128962 979.508826,170.229981 L979.508826,164.421184 L974.608737,164.421184 L974.608737,161.714364 C975.253657,161.819739 975.861306,161.874073 976.425206,161.874073 C978.272461,161.874073 979.700034,161.310975 980.665792,160.199598 C982.289433,158.334131 981.981557,155.627311 981.968593,155.513703 Z" id="Combined-Shape"></path>
        </g>
    </g>
</svg>