<?xml version="1.0" encoding="UTF-8"?>
<svg width="30px" height="30px" viewBox="0 0 30 30" version="1.1" xmlns="http://www.w3.org/2000/svg" xmlns:xlink="http://www.w3.org/1999/xlink">
    <!-- Generator: Sketch 43 (38999) - http://www.bohemiancoding.com/sketch -->
    <title>Combined Shape Copy 20</title>
    <desc>Created with Sketch.</desc>
    <defs></defs>
    <g id="Page-1" stroke="none" stroke-width="1" fill="none" fill-rule="evenodd">
        <path d="M14.5,15 L14.5,12 L15.5,12 L15.5,15 L18.5,15 L18.5,16 L15.5,16 L15.5,19 L14.5,19 L14.5,16 L11.5,16 L11.5,15 L14.5,15 Z M0,15 C0,6.71572875 6.71390727,0 15,0 C23.2842712,0 30,6.71390727 30,15 C30,23.2842712 23.2860927,30 15,30 C6.71572875,30 0,23.2860927 0,15 Z M9.48965751,21.3608611 L20.5099479,21.3608611 C21.3316614,21.3608611 22.0000729,20.7134057 22.0000729,19.9172182 L22.0000729,11.1874917 C22.0000729,10.3912147 21.3316836,9.7438264 20.5099479,9.7438264 L19.0503057,9.7438264 L19.0503057,8.44364292 C19.0503057,7.64754473 18.3820723,7 17.5605592,7 L12.6559661,7 C11.8344085,7 11.1660638,7.64754473 11.1660638,8.44364292 L11.1660638,9.74373703 L9.48965751,9.74373703 C8.66830022,9.74373703 8,10.3912371 8,11.1874917 L8,19.9172182 C8,20.7134281 8.66830022,21.3608611 9.48965751,21.3608611 Z M18.0723966,8.44364292 L18.0723966,9.7438264 L12.1441732,9.7438264 L12.1441732,8.44364292 C12.1441732,8.17046452 12.3737366,7.94791361 12.6559661,7.94791361 L17.5605592,7.94791361 C17.8424771,7.94791361 18.0723966,8.17044218 18.0723966,8.44364292 Z" id="Combined-Shape-Copy-20" fill="#08888F"></path>
    </g>
</svg>