<?xml version="1.0" encoding="UTF-8"?>
<svg width="30px" height="30px" viewBox="0 0 30 30" version="1.1" xmlns="http://www.w3.org/2000/svg" xmlns:xlink="http://www.w3.org/1999/xlink">
    <!-- Generator: Sketch 43 (38999) - http://www.bohemiancoding.com/sketch -->
    <title>Combined Shape</title>
    <desc>Created with Sketch.</desc>
    <defs></defs>
    <g id="Page-1" stroke="none" stroke-width="1" fill="none" fill-rule="evenodd">
        <g id="Artboard" transform="translate(-882.000000, -146.000000)" fill="#08888F">
            <path d="M899,156 L899,155 L900,155 L900,156 L901,156 L901,157 L900,157 L900,158 L899,158 L899,157 L898,157 L898,156 L899,156 Z M892.085053,154 L891.002473,154 C890.455761,154 890,154.451066 890,155.007484 L890,167.992516 C890,168.55108 890.448823,169 891.002473,169 L900.997527,169 C901.544239,169 902,168.548934 902,167.992516 L902,155.007484 C902,154.44892 901.551177,154 900.997527,154 L899.915182,154 C899.709258,153.414891 899.151286,153 898.495261,153 L893.504739,153 C892.845325,153 892.290396,153.417404 892.085053,154 Z M882,161 C882,152.715729 888.713907,146 897,146 C905.284271,146 912,152.713907 912,161 C912,169.284271 905.286093,176 897,176 C888.715729,176 882,169.286093 882,161 Z M892,159 L900,159 L900,160 L892,160 L892,159 Z M892,162 L900,162 L900,163 L892,163 L892,162 Z M892,165 L900,165 L900,166 L892,166 L892,165 Z M903,156.995577 L903,167 L904,168.007385 L905,167 L905,156.995577 C905,156.444837 904.552285,156 904,156 C903.443865,156 903,156.445735 903,156.995577 Z" id="Combined-Shape"></path>
        </g>
    </g>
</svg>