<?xml version="1.0" encoding="UTF-8"?>
<svg width="30px" height="30px" viewBox="0 0 30 30" version="1.1" xmlns="http://www.w3.org/2000/svg" xmlns:xlink="http://www.w3.org/1999/xlink">
    <!-- Generator: Sketch 43 (38999) - http://www.bohemiancoding.com/sketch -->
    <title>Combined Shape</title>
    <desc>Created with Sketch.</desc>
    <defs></defs>
    <g id="Page-1" stroke="none" stroke-width="1" fill="none" fill-rule="evenodd">
        <path d="M15,16 L15,13 L16,13 L16,16 L19,16 L19,17 L16,17 L16,20 L15,20 L15,17 L12,17 L12,16 L15,16 Z M0,15 C0,6.71572875 6.71390727,0 15,0 C23.2842712,0 30,6.71390727 30,15 C30,23.2842712 23.2860927,30 15,30 C6.71572875,30 0,23.2860927 0,15 Z M10,12.0024733 L10,21.9975267 C10,22.544239 10.4457352,23 10.9955775,23 L20.0044225,23 C20.555163,23 21,22.5511774 21,21.9975267 L21,12.0024733 C21,11.455761 20.5542648,11 20.0044225,11 L10.9955775,11 C10.444837,11 10,11.4488226 10,12.0024733 Z M10,7.99895656 L10,9.00104344 C10,9.55733967 10.4457352,10 10.9955775,10 L20.0044225,10 C20.555163,10 21,9.55275191 21,9.00104344 L21,7.99895656 C21,7.44266033 20.5542648,7 20.0044225,7 L10.9955775,7 C10.444837,7 10,7.44724809 10,7.99895656 Z" id="Combined-Shape" fill="#08888F"></path>
    </g>
</svg>