<?xml version="1.0" encoding="UTF-8"?>
<svg width="23px" height="23px" viewBox="0 0 23 23" version="1.1" xmlns="http://www.w3.org/2000/svg" xmlns:xlink="http://www.w3.org/1999/xlink">
    <!-- Generator: Sketch 52 (66869) - http://www.bohemiancoding.com/sketch -->
    <title>查看科室医生</title>
    <desc>Created with Sketch.</desc>
    <g id="查看科室医生" stroke="none" stroke-width="1" fill="none" fill-rule="evenodd">
        <path d="M18,8 L18,4 C17.9375,3.52814388 17.4618025,3.05555556 17,3 L4,3 C3.53819745,3.05555556 3.0625,3.52814388 3,4 L3,19 C3.0625,19.4718561 3.53819745,19.9444444 4,20 L12,20 C12.2761424,20 12.5,20.2238576 12.5,20.5 C12.5,20.7761424 12.2761424,21 12,21 L4,21 C2.95139491,21 2,20.0548234 2,19 L2,4 C2,2.94517664 2.95139491,2 4,2 L17,2 C18.0486051,2 19,2.94517664 19,4 L19,8 C19,8.27614237 18.7761424,8.5 18.5,8.5 C18.2238576,8.5 18,8.27614237 18,8 Z M5.5,7 L15.5,7 C15.7761424,7 16,7.22385763 16,7.5 C16,7.77614237 15.7761424,8 15.5,8 L5.5,8 C5.22385763,8 5,7.77614237 5,7.5 C5,7.22385763 5.22385763,7 5.5,7 Z M5.5,11 L10.5,11 C10.7761424,11 11,11.2238576 11,11.5 C11,11.7761424 10.7761424,12 10.5,12 L5.5,12 C5.22385763,12 5,11.7761424 5,11.5 C5,11.2238576 5.22385763,11 5.5,11 Z M5.5,15 L8.5,15 C8.77614237,15 9,15.2238576 9,15.5 C9,15.7761424 8.77614237,16 8.5,16 L5.5,16 C5.22385763,16 5,15.7761424 5,15.5 C5,15.2238576 5.22385763,15 5.5,15 Z" id="合并形状" fill="#999999"></path>
        <circle id="椭圆形" stroke="#999999" cx="16" cy="15" r="3.5"></circle>
        <rect id="矩形" stroke="#979797" fill="#D8D8D8" transform="translate(19.767767, 18.767767) rotate(-315.000000) translate(-19.767767, -18.767767) " x="18.267767" y="18.767767" width="3" height="1" rx="0.5"></rect>
    </g>
</svg>