<?xml version="1.0" encoding="UTF-8"?>
<svg width="22px" height="22px" viewBox="0 0 22 22" version="1.1" xmlns="http://www.w3.org/2000/svg" xmlns:xlink="http://www.w3.org/1999/xlink">
    <!-- Generator: Sketch 52 (66869) - http://www.bohemiancoding.com/sketch -->
    <title>合并形状</title>
    <desc>Created with Sketch.</desc>
    <g id="Page-1" stroke="none" stroke-width="1" fill="none" fill-rule="evenodd">
        <g id="运营_待处理工单" transform="translate(-1555.000000, -173.000000)" fill="#999999" fill-rule="nonzero">
            <path d="M1556,189.380461 C1558.68372,187.465335 1561.40107,186.834878 1564.12127,187.514929 C1567.88139,188.454959 1571.15217,186.043802 1571.15217,182.222222 C1571.15217,177.72754 1572.69522,175.5 1576,175.5 L1576,175 C1576,174.447715 1575.55228,174 1575,174 L1557,174 C1556.44772,174 1556,174.447715 1556,175 L1556,189.380461 Z M1556,190.625 L1556,193 C1556,193.552285 1556.44772,194 1557,194 L1575,194 C1575.55228,194 1576,193.552285 1576,193 L1576,176.5 C1573.34238,176.5 1572.15217,178.218176 1572.15217,182.222222 C1572.15217,186.708335 1568.25714,189.579673 1563.87873,188.485071 C1561.36701,187.85714 1558.85222,188.485838 1556.3,190.4 L1556,190.625 Z M1557,173 L1575,173 C1576.10457,173 1577,173.895431 1577,175 L1577,193 C1577,194.104569 1576.10457,195 1575,195 L1557,195 C1555.89543,195 1555,194.104569 1555,193 L1555,175 C1555,173.895431 1555.89543,173 1557,173 Z M1562.5,182 C1563.32843,182 1564,181.328427 1564,180.5 C1564,179.671573 1563.32843,179 1562.5,179 C1561.67157,179 1561,179.671573 1561,180.5 C1561,181.328427 1561.67157,182 1562.5,182 Z M1562.5,183 C1561.11929,183 1560,181.880712 1560,180.5 C1560,179.119288 1561.11929,178 1562.5,178 C1563.88071,178 1565,179.119288 1565,180.5 C1565,181.880712 1563.88071,183 1562.5,183 Z" id="合并形状"></path>
        </g>
    </g>
</svg>